<?xml version="1.0" encoding="UTF-8"?>
<svg id="katman_1" data-name="katman 1" xmlns="http://www.w3.org/2000/svg" version="1.1" viewBox="0 0 2410 1670">
  <defs>
    <style>
      .cls-1 {
        fill: #000;
        stroke-width: 0px;
      }
    </style>
  </defs>
  <path class="cls-1" d="M974.69,65.1l364.42.37-.06,148.2-392.85.23.77-146.04c2.78,9.27.95,24.18.95,34.17,0,35.2-2.71,72.66,1.64,107.47,4.63.67,7.99,2.82,12.85,1.93,9.08-1.66,20.85-.33,30.19-.33h71.06s263.14.03,263.14.03l1.18-1.18c1.91.07,3.45-.18,5.3-.59l.24-.66.36-1.11c1.88-5.49,1.33-11.13,1.35-16.88v-30.64c-.04-30.33,1.81-61.43-1.36-91.55-2.78-.89-5.54-.42-8.24-1.11-7.81-2.01-17.47-1.01-25.68-1.01h-46.8s-220.86.03-220.86.03l-43.47.02c-2.82,0-9.74.83-12.1,0-.76-.27-1.34-.89-2.02-1.34Z"/>
  <path class="cls-1" d="M946.96,67.85l-.02-1.21c4.32-3.16,21.87-1.58,27.75-1.55.67.45,1.26,1.07,2.02,1.34,2.36.82,9.28,0,12.1,0l43.47-.02,220.86-.03h46.8c8.21,0,17.86-1,25.68,1.01,2.7.7,5.46.22,8.24,1.11,3.17,30.12,1.32,61.22,1.36,91.55v30.64c-.02,5.74.53,11.39-1.36,16.88l-.36,1.11-.24.66c-1.86.42-3.39.67-5.3.59l-1.18,1.18-263.14-.04h-71.06c-9.34.02-21.11-1.31-30.19.35-4.86.89-8.22-1.27-12.85-1.93-4.35-34.81-1.64-72.26-1.64-107.47,0-9.99,1.84-24.89-.95-34.17Z"/>
  <path class="cls-1" d="M1066.66,247l153.96.12-.28,389.99-153.76.36.08-390.47Z"/>
  <path class="cls-1" d="M758.67,64.03l153.62.02-.06,149.04-100.9.12c-16.01-.02-33.69-1.26-49.55.83-2.9.38-5.6,1.32-8.07,2.92-3.99,2.59-4.86,6.25-5.85,10.6,1.04,5.66,2.92,8.9,7.02,12.94,13.97,13.73,32.33,24.14,48.46,35.14,26.99,18.39,54.03,37.49,78.15,59.57,35.85,32.82,63.3,72.68,65.26,122.72,1.72,43.88-8.09,92.81-38.6,125.79-37.67,40.73-94.08,49.92-146.82,51.85l-160.9.33.21-144.68,150.86-.51c10.56-.39,25.02-2.09,32.29-10.62,3.07-3.6,4.25-7.77,3.95-12.44-1.6-25.24-62.57-62.37-81.9-76.45-14.42-10.5-28.6-21.26-41.95-33.11-37.03-32.87-63.93-71.28-66.74-122.08-2.45-44.23,9.66-90.62,39.85-123.94,31.02-34.24,77.17-46.03,121.67-48.06Z"/>
  <path class="cls-1" d="M1373.34,64.88l130.65-.19c42.77,0,89.28-3.72,131.34,4.75,46.13,9.3,85.97,28.78,112.57,69.09,28.62,43.37,34.16,107.02,23.77,156.95-10.29,49.44-37.58,87.25-79.6,114.7,1.8,9.79,9.79,21.86,14.27,30.83l32.92,65.96,37.93,76.37c8.53,17.42,16.68,35.79,26.37,52.54l-182.22.59c-2.97-3.39-4.4-8.95-6.05-13.12l-10.66-26.68-46.55-115.47c-2.53-19.46-1.08-40.39-1.08-60.03l.08-109.32c15.27-.58,30.05-1.74,42.24-12.15,9.65-8.24,13.53-20.88,14.5-33.09,1.08-13.58-1.8-27.83-10.96-38.24-19.21-21.82-52.19-13.32-77.67-14.94l-1.54-.1c-1.73,15.32-.77,31.38-.78,46.82l-.02,81.77.07,294.52-149.76-.18.18-571.4Z"/>
  <path class="cls-1" d="M2061.14,57.04c67.01-3.8,129.2,13.75,184.81,50.93l-3.31,15.59c-10.45,5.64-21.3,10.33-31.52,16.42-18.94,11.28-35.96,24.87-51.56,40.4-8.67,8.63-16.75,18.05-23.92,27.96-1.23,1.7-7.46,11.83-8.72,12.33-.63.25-33.03-6.88-37.89-7.53-19.99-2.68-39.37-2.59-59.4-.47-11.27,1.19-21.76,2.44-31.91,7.88-16.29,8.74-34.79,25.33-40.21,43.58-9.58,32.26-11.72,68.96-14.25,102.44-1.54,20.34-3.92,43.15-1.36,63.39.84,6.62,2.68,13.69,5.98,19.52,7.32,12.93,25.8,26.28,40.03,30.16,14.64,3.99,30.37,5.23,45.44,6.49,49.46,4.13,104.5,2.42,148.4-23.64,24.83-14.74,37.82-39.26,44.8-66.42,9.49-36.95,6.47-79.2-13.38-112.39-16.43-27.46-42.35-50.56-73.87-58.49,22.35-35.65,55.53-64.23,92.98-83.17,3.08-1.55,12.9-6.88,15.98-6.79,2.63.08,8.14,3.57,11.09,4.41,6.48,1.85,12.93-.72,18.5-3.85l1.29-.73,2.28,1.87c14.36,12.24,26.92,28.24,37.81,43.56,2.85,4.01,7.54,9.16,7.94,14.1l.6.44c4.68,3.68,7.7,11.1,10.5,16.28,18.66,34.63,29.31,72.84,33.04,111.91,7.34,76.78-18.65,153.84-67.66,212.79-47.2,56.77-119.36,95.79-193.02,102.55-77.69,7.14-155.97-15.09-216.11-65.45-60.31-50.5-97.59-121.22-104.56-199.58-6.88-77.34,17.89-155.18,68.07-214.5,51.71-61.13,123.9-95.23,203.08-102.03Z"/>
  <path class="cls-1" d="M481.1,64.02l85.27.05-.2,572.97-152.91.1.25-399.64c-78.68,28.4-134.42,94.79-171.22,167.6l88.95-.35,47.96.49v142.69s-181.21-.12-181.21-.12c-5.95,28.72-6.42,59.33-7.42,88.56-1.77,1.18-4.99.78-7.15.82l-25.29.24-120.27.09c-2.62-154.04,51.29-322.45,157.21-436.39,76.39-82.17,172.98-132.8,286.01-137.12Z"/>
  <path class="cls-1" d="M1688.67,755.92l683.54.12.08,213.55-224.98.5-.2,99.9.09,176.7-.03,72.59c-.01,10.92,1,22.97-.09,33.78-.17,1.71-1.12,3.31-2.06,4.7.98,1.25,1.78,2.52,2.06,4.12.92,5.23.09,12.25.11,17.64l.07,42.29-.48,158.38-231.08-.03-.08-610.01-224.31-.52-.98.07c-1.21-18.24-.25-37.17-.26-55.48l.06-103.88.1-35c0-6.1.65-12.66-1.22-18.52l-.32-.9Z"/>
  <path class="cls-1" d="M37.93,756.04l280.28-.08h99.31c43.4.01,85.48.13,128.09,9.81,51.98,11.82,99.51,37.94,128.33,84,29.88,47.77,35.2,113.95,22.47,167.92-12.6,53.39-46.65,90.05-92.23,118.43,32.32,10.78,61.36,23.87,86,48.21,38.49,38.01,53.41,90.49,53.53,143.41.14,64.1-17.26,126.87-63.54,173.18-75.8,75.84-186.19,79.44-286.53,79.29l-310.4-.44.07-421.55.02-90.16.04-20.84c.01-3.38-.53-7.93.59-11.11l208.18-.04.18,53.36,3.03.1,67.54.26c20.43,0,42.64,1.64,62.63-2.98,12.16-2.81,23.64-7.96,32.7-16.71,12.72-12.28,17.4-29.04,17.79-46.3.37-16.36-3.53-32.78-15.25-44.72-9.65-9.84-23.82-14.53-37.14-16.66-12.96-2.08-26.45-1.71-39.54-1.75h-55.61s-204.89-.11-204.89-.11l-85.65-204.51ZM292.32,1233.05l-.23,141.34,93.15.26c24.22,0,50.86,2.38,74.47-3.45,11.74-2.89,21.88-8.78,31.21-16.31,15.12-14.88,21.91-32.96,22.07-54,.13-16.69-3.84-34.11-15.78-46.44-21.41-22.09-54.66-21.2-83.16-21.26l-121.73-.14Z"/>
  <path class="cls-1" d="M700.12,702.59l6.5-.26c31.61-1,63.26,8.86,92.76,19.28,57.08,20.17,111.85,48.16,164.79,77.41l31.19,17.7c2.27,1.29,8.39,5.43,10.79,5.6.31.02,3.16-1.72,3.48-1.9l20.53-12.15c19.02-10.83,39.34-19.92,59.94-27.29,64.42-23.03,134.16-30.67,201.89-20.05,108.06,16.95,206.03,74.92,270.6,163.52,64.87,89.02,90.22,196.25,75.3,305.24-1.95,14.23-5.06,28.56-8.85,42.42-2.27,8.32-5.44,16.79-6.78,25.29l42.29,42.94c46.94,49.06,161.89,172.63,159.52,242.48-.31,8.99-3.73,17.17-10.45,23.22-14.72,13.24-36.14,10.87-54.36,9.7-13.11-2.9-26.13-4.88-39.12-8.51-46.07-12.89-90.85-33.53-133.6-54.76l-69.56-36.79c-5.1-2.86-33.95-20.54-36.59-20.37-1.43.09-9.24,6.51-10.86,7.64-12.93,9.04-26.1,17.67-39.92,25.3-37.89,20.91-78.01,35-120.28,44.06-101.53,21.77-214.96-2.51-301.57-58.45-136.09-87.91-204.85-243.25-184.58-402.99,2.55-20.14,7.05-40.42,12.93-59.85l9.86-29.11c1.39-3.59,5.69-11.3,5.86-14.83.03-.71-30.01-31.09-33.17-34.44-41.13-43.55-81.15-89.49-114.35-139.45-15.21-22.88-31.86-50.15-37.55-77.28-2.65-12.65-3.72-26.88,3.91-38.11,7.04-10.38,17.88-12.96,29.46-15.21ZM804.48,769.54c-6.6,2.01-11.19,4.5-14.66,10.7-6.15,11.01-4.2,25.71-.68,37.2,5.61,18.27,16.27,35.61,26.89,51.39,17.46,25.91,37.62,50.13,58.25,73.58,90.79,103.2,196.93,194.37,305.08,278.83,111.83,87.33,230.39,171.07,356.54,236.56,36.38,18.88,139.23,70.22,179.46,57.24,6.45-2.08,12.52-7.01,15.56-13.1,5.62-11.26-1.14-30.93-5.12-42.07-8.81-24.67-25.31-48.22-40.95-69-21.11-28.04-43.96-54.43-67.81-80.15l-18.41,41.72c-15.76,30.51-34.28,57.72-56.05,84.26l-205.55-126.36c39.44-35.18,66.42-76.87,69.44-131.08,2.74-49.23-13.52-95.5-46.57-132.1-30.35-33.6-74.86-55.34-120.14-57.59-48.63-2.41-95.53,12.05-131.91,44.96-20.11,18.19-33.13,38.85-45.56,62.71l-.79-.88-167.6-164.2c25.88-39.16,60.88-73.87,99.54-100.44-25.62-13.85-51.8-26.53-78.7-37.72-35.94-14.95-70.76-26.79-110.25-24.44ZM1049.23,1187.46c6.76,50.29,30.78,93.43,71.26,124.16,38.86,29.51,84.7,38.3,132.56,34.1l-203.82-158.27Z"/>
</svg>